<?xml version="1.0" encoding="utf-8" standalone="no"?>
<!DOCTYPE svg PUBLIC "-//W3C//DTD SVG 1.1//EN"
  "http://www.w3.org/Graphics/SVG/1.1/DTD/svg11.dtd">
<svg xmlns:xlink="http://www.w3.org/1999/xlink" width="388.823125pt" height="314.882875pt" viewBox="0 0 388.823125 314.882875" xmlns="http://www.w3.org/2000/svg" version="1.1">
 <metadata>
  <rdf:RDF xmlns:dc="http://purl.org/dc/elements/1.1/" xmlns:cc="http://creativecommons.org/ns#" xmlns:rdf="http://www.w3.org/1999/02/22-rdf-syntax-ns#">
   <cc:Work>
    <dc:type rdf:resource="http://purl.org/dc/dcmitype/StillImage"/>
    <dc:date>2023-08-10T17:20:59.114580</dc:date>
    <dc:format>image/svg+xml</dc:format>
    <dc:creator>
     <cc:Agent>
      <dc:title>Matplotlib v3.6.2, https://matplotlib.org/</dc:title>
     </cc:Agent>
    </dc:creator>
   </cc:Work>
  </rdf:RDF>
 </metadata>
 <defs>
  <style type="text/css">*{stroke-linejoin: round; stroke-linecap: butt}</style>
 </defs>
 <g id="figure_1">
  <g id="patch_1">
   <path d="M 0 314.882875 
L 388.823125 314.882875 
L 388.823125 0 
L 0 0 
L 0 314.882875 
z
" style="fill: none"/>
  </g>
  <g id="axes_1">
   <g id="patch_2">
    <path d="M 46.823125 275.391 
L 145.293713 275.391 
L 145.293713 25.911 
L 46.823125 25.911 
L 46.823125 275.391 
z
" style="fill: none"/>
   </g>
   <g id="matplotlib.axis_1">
    <g id="xtick_1">
     <g id="line2d_1">
      <defs>
       <path id="m7be432eb08" d="M 0 0 
L 0 3.5 
" style="stroke: #000000; stroke-width: 0.8"/>
      </defs>
      <g>
       <use xlink:href="#m7be432eb08" x="54.879725" y="275.391" style="stroke: #000000; stroke-width: 0.8"/>
      </g>
     </g>
     <g id="text_1">
      <!-- 0 -->
      <g transform="translate(51.698475 289.989437) scale(0.1 -0.1)">
       <defs>
        <path id="DejaVuSerif-30" d="M 2034 219 
Q 2513 219 2750 744 
Q 2988 1269 2988 2328 
Q 2988 3391 2750 3916 
Q 2513 4441 2034 4441 
Q 1556 4441 1318 3916 
Q 1081 3391 1081 2328 
Q 1081 1269 1318 744 
Q 1556 219 2034 219 
z
M 2034 -91 
Q 1275 -91 848 546 
Q 422 1184 422 2328 
Q 422 3475 848 4112 
Q 1275 4750 2034 4750 
Q 2797 4750 3222 4112 
Q 3647 3475 3647 2328 
Q 3647 1184 3222 546 
Q 2797 -91 2034 -91 
z
" transform="scale(0.015625)"/>
       </defs>
       <use xlink:href="#DejaVuSerif-30"/>
      </g>
     </g>
    </g>
    <g id="xtick_2">
     <g id="line2d_2">
      <g>
       <use xlink:href="#m7be432eb08" x="89.646084" y="275.391" style="stroke: #000000; stroke-width: 0.8"/>
      </g>
     </g>
     <g id="text_2">
      <!-- 1 -->
      <g transform="translate(86.464834 289.989437) scale(0.1 -0.1)">
       <defs>
        <path id="DejaVuSerif-31" d="M 909 0 
L 909 331 
L 1722 331 
L 1722 4213 
L 781 3603 
L 781 4013 
L 1919 4750 
L 2350 4750 
L 2350 331 
L 3163 331 
L 3163 0 
L 909 0 
z
" transform="scale(0.015625)"/>
       </defs>
       <use xlink:href="#DejaVuSerif-31"/>
      </g>
     </g>
    </g>
    <g id="xtick_3">
     <g id="line2d_3">
      <g>
       <use xlink:href="#m7be432eb08" x="124.412443" y="275.391" style="stroke: #000000; stroke-width: 0.8"/>
      </g>
     </g>
     <g id="text_3">
      <!-- 2 -->
      <g transform="translate(121.231193 289.989437) scale(0.1 -0.1)">
       <defs>
        <path id="DejaVuSerif-32" d="M 819 3553 
L 469 3553 
L 469 4384 
Q 803 4563 1142 4656 
Q 1481 4750 1806 4750 
Q 2534 4750 2956 4397 
Q 3378 4044 3378 3438 
Q 3378 2753 2422 1800 
Q 2347 1728 2309 1691 
L 1131 513 
L 3078 513 
L 3078 1088 
L 3444 1088 
L 3444 0 
L 434 0 
L 434 341 
L 1850 1753 
Q 2319 2222 2519 2614 
Q 2719 3006 2719 3438 
Q 2719 3909 2473 4175 
Q 2228 4441 1797 4441 
Q 1350 4441 1106 4219 
Q 863 3997 819 3553 
z
" transform="scale(0.015625)"/>
       </defs>
       <use xlink:href="#DejaVuSerif-32"/>
      </g>
     </g>
    </g>
    <g id="text_4">
     <!-- $\langle {u_z}^\prime b^\prime\rangle/B_0$ -->
     <g transform="translate(69.238419 305.18725) scale(0.12 -0.12)">
      <defs>
       <path id="DejaVuSans-27e8" d="M 572 2006 
L 1453 4856 
L 1984 4856 
L 1103 2006 
L 1984 -844 
L 1453 -844 
L 572 2006 
z
" transform="scale(0.015625)"/>
       <path id="DejaVuSans-Oblique-75" d="M 428 1388 
L 838 3500 
L 1416 3500 
L 1006 1409 
Q 975 1256 961 1147 
Q 947 1038 947 966 
Q 947 700 1109 554 
Q 1272 409 1569 409 
Q 2031 409 2368 721 
Q 2706 1034 2809 1563 
L 3194 3500 
L 3769 3500 
L 3091 0 
L 2516 0 
L 2631 550 
Q 2388 244 2052 76 
Q 1716 -91 1338 -91 
Q 878 -91 622 161 
Q 366 413 366 863 
Q 366 956 381 1097 
Q 397 1238 428 1388 
z
" transform="scale(0.015625)"/>
       <path id="DejaVuSans-Oblique-7a" d="M 744 3500 
L 3475 3500 
L 3372 2975 
L 738 459 
L 2913 459 
L 2822 0 
L -19 0 
L 84 525 
L 2719 3041 
L 653 3041 
L 744 3500 
z
" transform="scale(0.015625)"/>
       <path id="Cmsy10-30" d="M 225 347 
Q 184 359 184 409 
L 966 3316 
Q 1003 3434 1093 3506 
Q 1184 3578 1300 3578 
Q 1450 3578 1564 3479 
Q 1678 3381 1678 3231 
Q 1678 3166 1644 3084 
L 488 319 
Q 466 275 428 275 
Q 394 275 320 306 
Q 247 338 225 347 
z
" transform="scale(0.015625)"/>
       <path id="DejaVuSans-Oblique-62" d="M 3169 2138 
Q 3169 2591 2961 2847 
Q 2753 3103 2388 3103 
Q 2122 3103 1889 2973 
Q 1656 2844 1484 2597 
Q 1303 2338 1198 1995 
Q 1094 1653 1094 1313 
Q 1094 881 1298 636 
Q 1503 391 1863 391 
Q 2134 391 2365 517 
Q 2597 644 2772 891 
Q 2950 1147 3059 1487 
Q 3169 1828 3169 2138 
z
M 1381 2969 
Q 1594 3256 1914 3420 
Q 2234 3584 2584 3584 
Q 3122 3584 3439 3221 
Q 3756 2859 3756 2241 
Q 3756 1734 3570 1259 
Q 3384 784 3041 416 
Q 2816 172 2522 40 
Q 2228 -91 1906 -91 
Q 1566 -91 1316 65 
Q 1066 222 909 531 
L 806 0 
L 231 0 
L 1178 4863 
L 1753 4863 
L 1381 2969 
z
" transform="scale(0.015625)"/>
       <path id="DejaVuSans-27e9" d="M 1925 2006 
L 1044 -844 
L 513 -844 
L 1394 2006 
L 513 4856 
L 1044 4856 
L 1925 2006 
z
" transform="scale(0.015625)"/>
       <path id="DejaVuSans-2f" d="M 1625 4666 
L 2156 4666 
L 531 -594 
L 0 -594 
L 1625 4666 
z
" transform="scale(0.015625)"/>
       <path id="DejaVuSans-Oblique-42" d="M 1081 4666 
L 2694 4666 
Q 3350 4666 3675 4422 
Q 4000 4178 4000 3688 
Q 4000 3238 3720 2911 
Q 3441 2584 2988 2516 
Q 3375 2428 3569 2181 
Q 3763 1934 3763 1522 
Q 3763 819 3242 409 
Q 2722 0 1819 0 
L 172 0 
L 1081 4666 
z
M 1234 2228 
L 903 519 
L 1919 519 
Q 2491 519 2800 781 
Q 3109 1044 3109 1522 
Q 3109 1891 2904 2059 
Q 2700 2228 2247 2228 
L 1234 2228 
z
M 1606 4147 
L 1331 2741 
L 2272 2741 
Q 2775 2741 3058 2959 
Q 3341 3178 3341 3566 
Q 3341 3869 3150 4008 
Q 2959 4147 2541 4147 
L 1606 4147 
z
" transform="scale(0.015625)"/>
       <path id="DejaVuSans-30" d="M 2034 4250 
Q 1547 4250 1301 3770 
Q 1056 3291 1056 2328 
Q 1056 1369 1301 889 
Q 1547 409 2034 409 
Q 2525 409 2770 889 
Q 3016 1369 3016 2328 
Q 3016 3291 2770 3770 
Q 2525 4250 2034 4250 
z
M 2034 4750 
Q 2819 4750 3233 4129 
Q 3647 3509 3647 2328 
Q 3647 1150 3233 529 
Q 2819 -91 2034 -91 
Q 1250 -91 836 529 
Q 422 1150 422 2328 
Q 422 3509 836 4129 
Q 1250 4750 2034 4750 
z
" transform="scale(0.015625)"/>
      </defs>
      <use xlink:href="#DejaVuSans-27e8" transform="translate(0 0.584375)"/>
      <use xlink:href="#DejaVuSans-Oblique-75" transform="translate(39.013672 0.584375)"/>
      <use xlink:href="#DejaVuSans-Oblique-7a" transform="translate(102.392578 -15.821875) scale(0.7)"/>
      <use xlink:href="#Cmsy10-30" transform="translate(142.827148 38.865625) scale(0.7)"/>
      <use xlink:href="#DejaVuSans-Oblique-62" transform="translate(164.804688 0.584375)"/>
      <use xlink:href="#Cmsy10-30" transform="translate(235.728958 38.865625) scale(0.7)"/>
      <use xlink:href="#DejaVuSans-27e9" transform="translate(257.706497 0.584375)"/>
      <use xlink:href="#DejaVuSans-2f" transform="translate(296.720169 0.584375)"/>
      <use xlink:href="#DejaVuSans-Oblique-42" transform="translate(330.411576 0.584375)"/>
      <use xlink:href="#DejaVuSans-30" transform="translate(399.015091 -15.821875) scale(0.7)"/>
     </g>
    </g>
   </g>
   <g id="matplotlib.axis_2">
    <g id="ytick_1">
     <g id="line2d_4">
      <defs>
       <path id="md91dd2472b" d="M 0 0 
L -3.5 0 
" style="stroke: #000000; stroke-width: 0.8"/>
      </defs>
      <g>
       <use xlink:href="#md91dd2472b" x="46.823125" y="275.391" style="stroke: #000000; stroke-width: 0.8"/>
      </g>
     </g>
     <g id="text_5">
      <!-- 0.0 -->
      <g transform="translate(23.92 279.190219) scale(0.1 -0.1)">
       <defs>
        <path id="DejaVuSerif-2e" d="M 603 325 
Q 603 500 722 622 
Q 841 744 1019 744 
Q 1191 744 1312 622 
Q 1434 500 1434 325 
Q 1434 153 1312 31 
Q 1191 -91 1019 -91 
Q 841 -91 722 29 
Q 603 150 603 325 
z
" transform="scale(0.015625)"/>
       </defs>
       <use xlink:href="#DejaVuSerif-30"/>
       <use xlink:href="#DejaVuSerif-2e" x="63.623047"/>
       <use xlink:href="#DejaVuSerif-30" x="95.410156"/>
      </g>
     </g>
    </g>
    <g id="ytick_2">
     <g id="line2d_5">
      <g>
       <use xlink:href="#md91dd2472b" x="46.823125" y="237.009462" style="stroke: #000000; stroke-width: 0.8"/>
      </g>
     </g>
     <g id="text_6">
      <!-- 0.2 -->
      <g transform="translate(23.92 240.80868) scale(0.1 -0.1)">
       <use xlink:href="#DejaVuSerif-30"/>
       <use xlink:href="#DejaVuSerif-2e" x="63.623047"/>
       <use xlink:href="#DejaVuSerif-32" x="95.410156"/>
      </g>
     </g>
    </g>
    <g id="ytick_3">
     <g id="line2d_6">
      <g>
       <use xlink:href="#md91dd2472b" x="46.823125" y="198.627923" style="stroke: #000000; stroke-width: 0.8"/>
      </g>
     </g>
     <g id="text_7">
      <!-- 0.4 -->
      <g transform="translate(23.92 202.427142) scale(0.1 -0.1)">
       <defs>
        <path id="DejaVuSerif-34" d="M 2234 1581 
L 2234 4063 
L 641 1581 
L 2234 1581 
z
M 3609 0 
L 1484 0 
L 1484 331 
L 2234 331 
L 2234 1247 
L 197 1247 
L 197 1588 
L 2241 4750 
L 2859 4750 
L 2859 1581 
L 3750 1581 
L 3750 1247 
L 2859 1247 
L 2859 331 
L 3609 331 
L 3609 0 
z
" transform="scale(0.015625)"/>
       </defs>
       <use xlink:href="#DejaVuSerif-30"/>
       <use xlink:href="#DejaVuSerif-2e" x="63.623047"/>
       <use xlink:href="#DejaVuSerif-34" x="95.410156"/>
      </g>
     </g>
    </g>
    <g id="ytick_4">
     <g id="line2d_7">
      <g>
       <use xlink:href="#md91dd2472b" x="46.823125" y="160.246385" style="stroke: #000000; stroke-width: 0.8"/>
      </g>
     </g>
     <g id="text_8">
      <!-- 0.6 -->
      <g transform="translate(23.92 164.045603) scale(0.1 -0.1)">
       <defs>
        <path id="DejaVuSerif-36" d="M 2094 219 
Q 2534 219 2771 542 
Q 3009 866 3009 1472 
Q 3009 2078 2771 2401 
Q 2534 2725 2094 2725 
Q 1647 2725 1412 2412 
Q 1178 2100 1178 1509 
Q 1178 888 1415 553 
Q 1653 219 2094 219 
z
M 1075 2569 
Q 1288 2803 1556 2918 
Q 1825 3034 2163 3034 
Q 2859 3034 3264 2615 
Q 3669 2197 3669 1472 
Q 3669 763 3233 336 
Q 2797 -91 2069 -91 
Q 1278 -91 853 498 
Q 428 1088 428 2181 
Q 428 3406 931 4078 
Q 1434 4750 2350 4750 
Q 2597 4750 2869 4703 
Q 3141 4656 3425 4563 
L 3425 3794 
L 3072 3794 
Q 3034 4109 2831 4275 
Q 2628 4441 2284 4441 
Q 1678 4441 1381 3981 
Q 1084 3522 1075 2569 
z
" transform="scale(0.015625)"/>
       </defs>
       <use xlink:href="#DejaVuSerif-30"/>
       <use xlink:href="#DejaVuSerif-2e" x="63.623047"/>
       <use xlink:href="#DejaVuSerif-36" x="95.410156"/>
      </g>
     </g>
    </g>
    <g id="ytick_5">
     <g id="line2d_8">
      <g>
       <use xlink:href="#md91dd2472b" x="46.823125" y="121.864846" style="stroke: #000000; stroke-width: 0.8"/>
      </g>
     </g>
     <g id="text_9">
      <!-- 0.8 -->
      <g transform="translate(23.92 125.664065) scale(0.1 -0.1)">
       <defs>
        <path id="DejaVuSerif-38" d="M 2981 1275 
Q 2981 1775 2732 2051 
Q 2484 2328 2034 2328 
Q 1584 2328 1336 2051 
Q 1088 1775 1088 1275 
Q 1088 772 1336 495 
Q 1584 219 2034 219 
Q 2484 219 2732 495 
Q 2981 772 2981 1275 
z
M 2853 3541 
Q 2853 3966 2637 4203 
Q 2422 4441 2034 4441 
Q 1650 4441 1433 4203 
Q 1216 3966 1216 3541 
Q 1216 3113 1433 2875 
Q 1650 2638 2034 2638 
Q 2422 2638 2637 2875 
Q 2853 3113 2853 3541 
z
M 2516 2484 
Q 3047 2413 3344 2092 
Q 3641 1772 3641 1275 
Q 3641 619 3225 264 
Q 2809 -91 2034 -91 
Q 1263 -91 845 264 
Q 428 619 428 1275 
Q 428 1772 725 2092 
Q 1022 2413 1556 2484 
Q 1084 2569 832 2842 
Q 581 3116 581 3541 
Q 581 4103 968 4426 
Q 1356 4750 2034 4750 
Q 2713 4750 3100 4426 
Q 3488 4103 3488 3541 
Q 3488 3116 3236 2842 
Q 2984 2569 2516 2484 
z
" transform="scale(0.015625)"/>
       </defs>
       <use xlink:href="#DejaVuSerif-30"/>
       <use xlink:href="#DejaVuSerif-2e" x="63.623047"/>
       <use xlink:href="#DejaVuSerif-38" x="95.410156"/>
      </g>
     </g>
    </g>
    <g id="ytick_6">
     <g id="line2d_9">
      <g>
       <use xlink:href="#md91dd2472b" x="46.823125" y="83.483308" style="stroke: #000000; stroke-width: 0.8"/>
      </g>
     </g>
     <g id="text_10">
      <!-- 1.0 -->
      <g transform="translate(23.92 87.282526) scale(0.1 -0.1)">
       <use xlink:href="#DejaVuSerif-31"/>
       <use xlink:href="#DejaVuSerif-2e" x="63.623047"/>
       <use xlink:href="#DejaVuSerif-30" x="95.410156"/>
      </g>
     </g>
    </g>
    <g id="ytick_7">
     <g id="line2d_10">
      <g>
       <use xlink:href="#md91dd2472b" x="46.823125" y="45.101769" style="stroke: #000000; stroke-width: 0.8"/>
      </g>
     </g>
     <g id="text_11">
      <!-- 1.2 -->
      <g transform="translate(23.92 48.900988) scale(0.1 -0.1)">
       <use xlink:href="#DejaVuSerif-31"/>
       <use xlink:href="#DejaVuSerif-2e" x="63.623047"/>
       <use xlink:href="#DejaVuSerif-32" x="95.410156"/>
      </g>
     </g>
    </g>
    <g id="text_12">
     <!-- Height  $z^\ast$ -->
     <g transform="translate(17.16 184.071) rotate(-90) scale(0.12 -0.12)">
      <defs>
       <path id="DejaVuSerif-48" d="M 353 0 
L 353 331 
L 947 331 
L 947 4331 
L 353 4331 
L 353 4666 
L 2175 4666 
L 2175 4331 
L 1581 4331 
L 1581 2719 
L 4000 2719 
L 4000 4331 
L 3406 4331 
L 3406 4666 
L 5228 4666 
L 5228 4331 
L 4634 4331 
L 4634 331 
L 5228 331 
L 5228 0 
L 3406 0 
L 3406 331 
L 4000 331 
L 4000 2338 
L 1581 2338 
L 1581 331 
L 2175 331 
L 2175 0 
L 353 0 
z
" transform="scale(0.015625)"/>
       <path id="DejaVuSerif-65" d="M 3469 1600 
L 991 1600 
L 991 1575 
Q 991 903 1244 561 
Q 1497 219 1991 219 
Q 2369 219 2611 417 
Q 2853 616 2950 1006 
L 3413 1006 
Q 3275 459 2904 184 
Q 2534 -91 1931 -91 
Q 1203 -91 761 389 
Q 319 869 319 1663 
Q 319 2450 753 2931 
Q 1188 3413 1894 3413 
Q 2647 3413 3050 2948 
Q 3453 2484 3469 1600 
z
M 2791 1931 
Q 2772 2513 2545 2808 
Q 2319 3103 1894 3103 
Q 1497 3103 1269 2806 
Q 1041 2509 991 1931 
L 2791 1931 
z
" transform="scale(0.015625)"/>
       <path id="DejaVuSerif-69" d="M 622 4353 
Q 622 4497 726 4603 
Q 831 4709 978 4709 
Q 1122 4709 1226 4603 
Q 1331 4497 1331 4353 
Q 1331 4206 1228 4103 
Q 1125 4000 978 4000 
Q 831 4000 726 4103 
Q 622 4206 622 4353 
z
M 1356 331 
L 1900 331 
L 1900 0 
L 231 0 
L 231 331 
L 781 331 
L 781 2988 
L 231 2988 
L 231 3322 
L 1356 3322 
L 1356 331 
z
" transform="scale(0.015625)"/>
       <path id="DejaVuSerif-67" d="M 3359 2988 
L 3359 72 
Q 3359 -644 2965 -1033 
Q 2572 -1422 1844 -1422 
Q 1516 -1422 1216 -1362 
Q 916 -1303 641 -1184 
L 641 -488 
L 941 -488 
Q 997 -813 1206 -963 
Q 1416 -1113 1806 -1113 
Q 2313 -1113 2548 -827 
Q 2784 -541 2784 72 
L 2784 519 
Q 2616 206 2355 57 
Q 2094 -91 1709 -91 
Q 1097 -91 708 395 
Q 319 881 319 1663 
Q 319 2444 706 2928 
Q 1094 3413 1709 3413 
Q 2094 3413 2355 3264 
Q 2616 3116 2784 2803 
L 2784 3322 
L 3909 3322 
L 3909 2988 
L 3359 2988 
z
M 2784 1825 
Q 2784 2422 2554 2737 
Q 2325 3053 1888 3053 
Q 1444 3053 1217 2703 
Q 991 2353 991 1663 
Q 991 975 1217 622 
Q 1444 269 1888 269 
Q 2325 269 2554 583 
Q 2784 897 2784 1497 
L 2784 1825 
z
" transform="scale(0.015625)"/>
       <path id="DejaVuSerif-68" d="M 263 0 
L 263 331 
L 781 331 
L 781 4531 
L 231 4531 
L 231 4863 
L 1356 4863 
L 1356 2731 
Q 1516 3069 1770 3241 
Q 2025 3413 2363 3413 
Q 2913 3413 3172 3097 
Q 3431 2781 3431 2113 
L 3431 331 
L 3944 331 
L 3944 0 
L 2356 0 
L 2356 331 
L 2853 331 
L 2853 1931 
Q 2853 2541 2704 2764 
Q 2556 2988 2175 2988 
Q 1775 2988 1565 2697 
Q 1356 2406 1356 1850 
L 1356 331 
L 1856 331 
L 1856 0 
L 263 0 
z
" transform="scale(0.015625)"/>
       <path id="DejaVuSerif-74" d="M 691 2988 
L 184 2988 
L 184 3322 
L 691 3322 
L 691 4353 
L 1269 4353 
L 1269 3322 
L 2350 3322 
L 2350 2988 
L 1269 2988 
L 1269 878 
Q 1269 456 1350 337 
Q 1431 219 1650 219 
Q 1875 219 1978 351 
Q 2081 484 2088 781 
L 2522 781 
Q 2497 328 2275 118 
Q 2053 -91 1600 -91 
Q 1103 -91 897 129 
Q 691 350 691 878 
L 691 2988 
z
" transform="scale(0.015625)"/>
       <path id="DejaVuSerif-20" transform="scale(0.015625)"/>
       <path id="DejaVuSans-2217" d="M 2153 2006 
L 816 2778 
L 1081 3238 
L 2419 2466 
L 2419 4013 
L 2944 4013 
L 2944 2466 
L 4281 3238 
L 4547 2778 
L 3209 2006 
L 4547 1234 
L 4281 775 
L 2944 1547 
L 2944 0 
L 2419 0 
L 2419 1547 
L 1081 775 
L 816 1234 
L 2153 2006 
z
" transform="scale(0.015625)"/>
      </defs>
      <use xlink:href="#DejaVuSerif-48" transform="translate(0 0.826562)"/>
      <use xlink:href="#DejaVuSerif-65" transform="translate(87.207031 0.826562)"/>
      <use xlink:href="#DejaVuSerif-69" transform="translate(146.386719 0.826562)"/>
      <use xlink:href="#DejaVuSerif-67" transform="translate(178.369141 0.826562)"/>
      <use xlink:href="#DejaVuSerif-68" transform="translate(242.382812 0.826562)"/>
      <use xlink:href="#DejaVuSerif-74" transform="translate(306.787109 0.826562)"/>
      <use xlink:href="#DejaVuSerif-20" transform="translate(346.972656 0.826562)"/>
      <use xlink:href="#DejaVuSerif-20" transform="translate(378.759766 0.826562)"/>
      <use xlink:href="#DejaVuSans-Oblique-7a" transform="translate(410.546875 0.826562)"/>
      <use xlink:href="#DejaVuSans-2217" transform="translate(481.140951 39.107812) scale(0.7)"/>
     </g>
    </g>
   </g>
   <g id="line2d_11">
    <path d="M 54.879725 275.391 
L 55.494893 274.495356 
L 57.207951 273.599288 
L 59.918933 272.702724 
L 67.265475 270.907751 
L 74.566402 269.10957 
L 77.487796 268.20892 
L 79.813956 267.306992 
L 81.585939 266.403567 
L 82.887671 265.498392 
L 83.813793 264.59117 
L 84.451327 263.681555 
L 84.872741 262.769145 
L 85.134535 261.85347 
L 85.338497 260.010063 
L 85.285286 258.145863 
L 84.963447 255.29401 
L 84.122794 250.297725 
L 82.726751 243.556535 
L 72.396398 196.809781 
L 58.209404 129.949285 
L 54.185457 109.639668 
L 52.694254 100.570307 
L 51.841816 93.74529 
L 51.465136 89.182345 
L 51.299061 84.607607 
L 51.378713 80.019634 
L 51.701714 75.416883 
L 52.269924 70.797523 
L 53.938266 59.16283 
L 54.338165 54.467998 
L 54.576075 47.372869 
L 54.629289 37.795384 
L 54.688207 23.106656 
L 54.783752 -1 
L 54.783752 -1 
" clip-path="url(#p6b6079cd74)" style="fill: none; stroke: #4c72b0; stroke-width: 2; stroke-linecap: square"/>
   </g>
   <g id="line2d_12">
    <path d="M 70.238293 274.495356 
L 90.892341 273.599288 
L 110.648597 272.702724 
L 126.523585 271.805578 
L 136.667952 270.907751 
L 140.817777 270.009127 
L 139.951305 269.10957 
L 135.640866 268.20892 
L 129.463409 267.306992 
L 122.657247 266.403567 
L 116.038085 265.498392 
L 110.04627 264.59117 
L 104.861767 263.681555 
L 100.498689 262.769145 
L 96.889671 261.85347 
L 93.930633 260.933987 
L 91.511476 260.010063 
L 89.528172 259.080971 
L 87.887563 258.145863 
L 86.51904 257.203769 
L 85.357819 256.253577 
L 84.360753 255.29401 
L 83.491136 254.323617 
L 82.73299 253.340752 
L 82.075015 252.343566 
L 81.509358 251.329989 
L 81.031836 250.297725 
L 80.628526 249.244254 
L 80.304533 248.166827 
L 80.052114 247.062506 
L 79.854976 245.928184 
L 79.690518 244.760621 
L 79.525915 243.556535 
L 79.33483 242.31266 
L 79.090357 241.025836 
L 78.790305 239.693143 
L 78.448412 238.311982 
L 78.107299 236.880196 
L 77.807359 235.396165 
L 77.569287 233.858887 
L 77.348825 232.268011 
L 77.123808 230.62388 
L 76.928127 228.927491 
L 76.753803 227.180455 
L 76.566599 225.384917 
L 76.371413 223.543475 
L 76.190552 221.659042 
L 76.001222 219.734762 
L 75.738203 217.773902 
L 75.34218 215.779733 
L 74.879927 213.75548 
L 74.4798 211.704255 
L 74.144321 209.628974 
L 73.763813 207.532384 
L 73.283544 205.416994 
L 72.709366 203.285092 
L 72.084054 201.138727 
L 71.501199 198.97975 
L 70.960958 196.809781 
L 70.463677 194.630278 
L 70.056754 192.442499 
L 69.695945 190.247531 
L 69.302283 188.046351 
L 68.848856 185.839767 
L 68.305939 183.628522 
L 67.696963 181.413205 
L 67.10239 179.194358 
L 66.535711 176.972435 
L 65.994856 174.747801 
L 65.489493 172.520811 
L 64.992195 170.291715 
L 64.44936 168.060767 
L 63.866445 165.828137 
L 63.295398 163.594021 
L 62.797363 161.35852 
L 62.37588 159.121749 
L 61.992253 156.883824 
L 61.62763 154.644777 
L 61.263518 152.404701 
L 60.871063 150.163595 
L 60.43303 147.921494 
L 59.947108 145.678444 
L 59.452307 143.43441 
L 58.990336 141.189426 
L 58.554974 138.943448 
L 58.137529 136.696474 
L 57.718794 134.448482 
L 57.293442 132.199438 
L 56.878427 129.949285 
L 56.476714 127.697999 
L 56.080618 125.445523 
L 55.693195 123.191812 
L 55.307725 120.936797 
L 54.910752 118.680398 
L 54.508095 116.42258 
L 54.121451 114.163241 
L 53.759395 111.902301 
L 53.417352 109.639668 
L 53.102093 107.375262 
L 52.824992 105.108957 
L 52.59439 102.840685 
L 52.417343 100.570307 
L 52.303385 98.297688 
L 52.261587 96.022725 
L 52.300611 93.74529 
L 52.430085 91.465213 
L 52.66589 89.182345 
L 53.054257 86.896537 
" clip-path="url(#p6b6079cd74)" style="fill: none; stroke-dasharray: 7.4,3.2; stroke-dashoffset: 0; stroke: #55a868; stroke-width: 2"/>
   </g>
   <g id="patch_3">
    <path d="M 46.823125 275.391 
L 46.823125 25.911 
" style="fill: none; stroke: #808080; stroke-width: 1.2; stroke-linejoin: miter; stroke-linecap: square"/>
   </g>
   <g id="patch_4">
    <path d="M 145.293713 275.391 
L 145.293713 25.911 
" style="fill: none; stroke: #808080; stroke-width: 1.2; stroke-linejoin: miter; stroke-linecap: square"/>
   </g>
   <g id="patch_5">
    <path d="M 46.823125 275.391 
L 145.293713 275.391 
" style="fill: none; stroke: #808080; stroke-width: 1.2; stroke-linejoin: miter; stroke-linecap: square"/>
   </g>
   <g id="patch_6">
    <path d="M 46.823125 25.911 
L 145.293713 25.911 
" style="fill: none; stroke: #808080; stroke-width: 1.2; stroke-linejoin: miter; stroke-linecap: square"/>
   </g>
   <g id="text_13">
    <!-- a) -->
    <g transform="translate(41.899596 16.318125) scale(0.12 -0.12)">
     <defs>
      <path id="DejaVuSerif-61" d="M 2547 1044 
L 2547 1747 
L 1806 1747 
Q 1378 1747 1168 1562 
Q 959 1378 959 997 
Q 959 650 1171 447 
Q 1384 244 1747 244 
Q 2106 244 2326 466 
Q 2547 688 2547 1044 
z
M 3122 2075 
L 3122 331 
L 3634 331 
L 3634 0 
L 2547 0 
L 2547 359 
Q 2356 128 2106 18 
Q 1856 -91 1522 -91 
Q 969 -91 644 203 
Q 319 497 319 997 
Q 319 1513 691 1797 
Q 1063 2081 1741 2081 
L 2547 2081 
L 2547 2309 
Q 2547 2688 2317 2895 
Q 2088 3103 1672 3103 
Q 1328 3103 1125 2947 
Q 922 2791 872 2484 
L 575 2484 
L 575 3156 
Q 875 3284 1158 3348 
Q 1441 3413 1709 3413 
Q 2400 3413 2761 3070 
Q 3122 2728 3122 2075 
z
" transform="scale(0.015625)"/>
      <path id="DejaVuSerif-29" d="M 453 -997 
L 453 -691 
Q 934 -359 1145 242 
Q 1356 844 1356 1931 
Q 1356 3022 1145 3623 
Q 934 4225 453 4556 
L 453 4863 
Q 1216 4522 1603 3783 
Q 1991 3044 1991 1931 
Q 1991 822 1603 83 
Q 1216 -656 453 -997 
z
" transform="scale(0.015625)"/>
     </defs>
     <use xlink:href="#DejaVuSerif-61"/>
     <use xlink:href="#DejaVuSerif-29" x="59.619141"/>
    </g>
   </g>
   <g id="text_14">
    <!-- $h/L_0 =$34.43 -->
    <g transform="translate(59.458419 19.911) scale(0.12 -0.12)">
     <defs>
      <path id="DejaVuSans-Oblique-68" d="M 3566 2113 
L 3156 0 
L 2578 0 
L 2988 2091 
Q 3016 2238 3031 2350 
Q 3047 2463 3047 2528 
Q 3047 2791 2881 2937 
Q 2716 3084 2419 3084 
Q 1956 3084 1617 2771 
Q 1278 2459 1178 1941 
L 800 0 
L 225 0 
L 1172 4863 
L 1747 4863 
L 1375 2950 
Q 1594 3244 1934 3414 
Q 2275 3584 2650 3584 
Q 3113 3584 3367 3334 
Q 3622 3084 3622 2631 
Q 3622 2519 3608 2391 
Q 3594 2263 3566 2113 
z
" transform="scale(0.015625)"/>
      <path id="DejaVuSans-Oblique-4c" d="M 1075 4666 
L 1709 4666 
L 909 525 
L 3181 525 
L 3078 0 
L 172 0 
L 1075 4666 
z
" transform="scale(0.015625)"/>
      <path id="DejaVuSans-3d" d="M 678 2906 
L 4684 2906 
L 4684 2381 
L 678 2381 
L 678 2906 
z
M 678 1631 
L 4684 1631 
L 4684 1100 
L 678 1100 
L 678 1631 
z
" transform="scale(0.015625)"/>
      <path id="DejaVuSerif-33" d="M 622 4469 
Q 988 4606 1323 4678 
Q 1659 4750 1953 4750 
Q 2638 4750 3022 4454 
Q 3406 4159 3406 3634 
Q 3406 3213 3140 2930 
Q 2875 2647 2388 2547 
Q 2963 2466 3280 2130 
Q 3597 1794 3597 1259 
Q 3597 606 3158 257 
Q 2719 -91 1894 -91 
Q 1528 -91 1179 -12 
Q 831 66 488 225 
L 488 1131 
L 838 1131 
Q 869 681 1141 450 
Q 1413 219 1906 219 
Q 2384 219 2661 495 
Q 2938 772 2938 1253 
Q 2938 1803 2653 2086 
Q 2369 2369 1819 2369 
L 1522 2369 
L 1522 2688 
L 1678 2688 
Q 2225 2688 2498 2914 
Q 2772 3141 2772 3597 
Q 2772 4006 2547 4223 
Q 2322 4441 1900 4441 
Q 1478 4441 1245 4241 
Q 1013 4041 972 3647 
L 622 3647 
L 622 4469 
z
" transform="scale(0.015625)"/>
     </defs>
     <use xlink:href="#DejaVuSans-Oblique-68" transform="translate(0 0.015625)"/>
     <use xlink:href="#DejaVuSans-2f" transform="translate(63.378906 0.015625)"/>
     <use xlink:href="#DejaVuSans-Oblique-4c" transform="translate(97.070312 0.015625)"/>
     <use xlink:href="#DejaVuSans-30" transform="translate(152.783203 -16.390625) scale(0.7)"/>
     <use xlink:href="#DejaVuSans-3d" transform="translate(219.536133 0.015625)"/>
     <use xlink:href="#DejaVuSerif-33" transform="translate(322.807617 0.015625)"/>
     <use xlink:href="#DejaVuSerif-34" transform="translate(386.430664 0.015625)"/>
     <use xlink:href="#DejaVuSerif-2e" transform="translate(450.053711 0.015625)"/>
     <use xlink:href="#DejaVuSerif-34" transform="translate(481.84082 0.015625)"/>
     <use xlink:href="#DejaVuSerif-33" transform="translate(545.463867 0.015625)"/>
    </g>
   </g>
   <g id="PathCollection_1">
    <defs>
     <path id="m925b761d85" d="M 0 3.535534 
C 0.937635 3.535534 1.836992 3.163008 2.5 2.5 
C 3.163008 1.836992 3.535534 0.937635 3.535534 0 
C 3.535534 -0.937635 3.163008 -1.836992 2.5 -2.5 
C 1.836992 -3.163008 0.937635 -3.535534 0 -3.535534 
C -0.937635 -3.535534 -1.836992 -3.163008 -2.5 -2.5 
C -3.163008 -1.836992 -3.535534 -0.937635 -3.535534 0 
C -3.535534 0.937635 -3.163008 1.836992 -2.5 2.5 
C -1.836992 3.163008 -0.937635 3.535534 0 3.535534 
z
" style="stroke: #c44e52"/>
    </defs>
    <g clip-path="url(#p6b6079cd74)">
     <use xlink:href="#m925b761d85" x="74.98667" y="237.009462" style="fill: #c44e52; stroke: #c44e52"/>
     <use xlink:href="#m925b761d85" x="68.401558" y="179.437154" style="fill: #c44e52; stroke: #c44e52"/>
     <use xlink:href="#m925b761d85" x="51.552409" y="83.483308" style="fill: #c44e52; stroke: #c44e52"/>
    </g>
   </g>
  </g>
  <g id="axes_2">
   <g id="patch_7">
    <path d="M 164.987831 275.391 
L 263.458419 275.391 
L 263.458419 25.911 
L 164.987831 25.911 
L 164.987831 275.391 
z
" style="fill: none"/>
   </g>
   <g id="matplotlib.axis_3">
    <g id="xtick_4">
     <g id="line2d_13">
      <g>
       <use xlink:href="#m7be432eb08" x="173.110664" y="275.391" style="stroke: #000000; stroke-width: 0.8"/>
      </g>
     </g>
     <g id="text_15">
      <!-- 0 -->
      <g transform="translate(169.929414 289.989437) scale(0.1 -0.1)">
       <use xlink:href="#DejaVuSerif-30"/>
      </g>
     </g>
    </g>
    <g id="xtick_5">
     <g id="line2d_14">
      <g>
       <use xlink:href="#m7be432eb08" x="207.123394" y="275.391" style="stroke: #000000; stroke-width: 0.8"/>
      </g>
     </g>
     <g id="text_16">
      <!-- 1 -->
      <g transform="translate(203.942144 289.989437) scale(0.1 -0.1)">
       <use xlink:href="#DejaVuSerif-31"/>
      </g>
     </g>
    </g>
    <g id="xtick_6">
     <g id="line2d_15">
      <g>
       <use xlink:href="#m7be432eb08" x="241.136123" y="275.391" style="stroke: #000000; stroke-width: 0.8"/>
      </g>
     </g>
     <g id="text_17">
      <!-- 2 -->
      <g transform="translate(237.954873 289.989437) scale(0.1 -0.1)">
       <use xlink:href="#DejaVuSerif-32"/>
      </g>
     </g>
    </g>
    <g id="text_18">
     <!-- $\langle {u_z}^\prime b^\prime\rangle/B_0$ -->
     <g transform="translate(187.403125 305.18725) scale(0.12 -0.12)">
      <use xlink:href="#DejaVuSans-27e8" transform="translate(0 0.584375)"/>
      <use xlink:href="#DejaVuSans-Oblique-75" transform="translate(39.013672 0.584375)"/>
      <use xlink:href="#DejaVuSans-Oblique-7a" transform="translate(102.392578 -15.821875) scale(0.7)"/>
      <use xlink:href="#Cmsy10-30" transform="translate(142.827148 38.865625) scale(0.7)"/>
      <use xlink:href="#DejaVuSans-Oblique-62" transform="translate(164.804688 0.584375)"/>
      <use xlink:href="#Cmsy10-30" transform="translate(235.728958 38.865625) scale(0.7)"/>
      <use xlink:href="#DejaVuSans-27e9" transform="translate(257.706497 0.584375)"/>
      <use xlink:href="#DejaVuSans-2f" transform="translate(296.720169 0.584375)"/>
      <use xlink:href="#DejaVuSans-Oblique-42" transform="translate(330.411576 0.584375)"/>
      <use xlink:href="#DejaVuSans-30" transform="translate(399.015091 -15.821875) scale(0.7)"/>
     </g>
    </g>
   </g>
   <g id="matplotlib.axis_4">
    <g id="ytick_8">
     <g id="line2d_16">
      <g>
       <use xlink:href="#md91dd2472b" x="164.987831" y="275.391" style="stroke: #000000; stroke-width: 0.8"/>
      </g>
     </g>
    </g>
    <g id="ytick_9">
     <g id="line2d_17">
      <g>
       <use xlink:href="#md91dd2472b" x="164.987831" y="237.009462" style="stroke: #000000; stroke-width: 0.8"/>
      </g>
     </g>
    </g>
    <g id="ytick_10">
     <g id="line2d_18">
      <g>
       <use xlink:href="#md91dd2472b" x="164.987831" y="198.627923" style="stroke: #000000; stroke-width: 0.8"/>
      </g>
     </g>
    </g>
    <g id="ytick_11">
     <g id="line2d_19">
      <g>
       <use xlink:href="#md91dd2472b" x="164.987831" y="160.246385" style="stroke: #000000; stroke-width: 0.8"/>
      </g>
     </g>
    </g>
    <g id="ytick_12">
     <g id="line2d_20">
      <g>
       <use xlink:href="#md91dd2472b" x="164.987831" y="121.864846" style="stroke: #000000; stroke-width: 0.8"/>
      </g>
     </g>
    </g>
    <g id="ytick_13">
     <g id="line2d_21">
      <g>
       <use xlink:href="#md91dd2472b" x="164.987831" y="83.483308" style="stroke: #000000; stroke-width: 0.8"/>
      </g>
     </g>
    </g>
    <g id="ytick_14">
     <g id="line2d_22">
      <g>
       <use xlink:href="#md91dd2472b" x="164.987831" y="45.101769" style="stroke: #000000; stroke-width: 0.8"/>
      </g>
     </g>
    </g>
   </g>
   <g id="line2d_23">
    <path d="M 173.110664 275.391 
L 173.697819 274.638884 
L 175.348849 273.886412 
L 177.982765 273.133522 
L 185.167447 271.626195 
L 192.331937 270.116174 
L 195.208071 269.359854 
L 197.507669 268.602461 
L 199.270392 267.843811 
L 200.576667 267.083691 
L 201.516831 266.321853 
L 202.173879 265.558004 
L 202.617099 264.791808 
L 202.900951 264.022871 
L 203.146464 262.474872 
L 203.130553 260.909412 
L 202.858278 258.514569 
L 201.967928 253.434292 
L 198.952803 237.797849 
L 196.972451 228.653726 
L 187.363156 185.260528 
L 179.241957 145.688224 
L 177.243451 136.201469 
L 171.962482 109.397136 
L 170.721087 101.6385 
L 169.959902 95.776886 
L 169.616218 91.845088 
L 169.464268 87.891328 
L 169.510106 83.912975 
L 169.728966 79.907078 
L 170.167457 75.870286 
L 172.343343 61.440893 
L 172.664751 57.212504 
L 172.813644 50.760019 
L 172.899243 37.366803 
L 172.913906 18.108678 
L 173.02489 -1 
L 173.02489 -1 
" clip-path="url(#p20c6ceb14c)" style="fill: none; stroke: #4c72b0; stroke-width: 2; stroke-linecap: square"/>
   </g>
   <g id="line2d_24">
    <path d="M 188.193699 274.638884 
L 208.560813 273.886412 
L 228.189881 273.133522 
L 244.113854 272.380145 
L 254.47656 271.626195 
L 258.982483 270.871577 
L 258.559044 270.116174 
L 254.719782 269.359854 
L 248.986206 268.602461 
L 242.557246 267.843811 
L 236.230526 267.083691 
L 230.450505 266.321853 
L 225.409358 265.558004 
L 221.141401 264.791808 
L 217.59509 264.022871 
L 214.677767 263.250736 
L 212.289712 262.474872 
L 210.328215 261.694667 
L 208.702261 260.909412 
L 207.34029 260.118289 
L 206.185078 259.320366 
L 205.199961 258.514569 
L 204.331999 257.699684 
L 203.562957 256.874324 
L 202.859428 256.036937 
L 202.200149 255.185788 
L 201.582105 254.318944 
L 200.983027 253.434292 
L 200.412721 252.529524 
L 199.870931 251.602172 
L 199.360066 250.649625 
L 198.881107 249.669166 
L 198.429985 248.658038 
L 198.006144 247.613491 
L 197.609702 246.532885 
L 197.27804 245.413753 
L 197.01827 244.253926 
L 196.813581 243.051584 
L 196.627785 241.805373 
L 196.439226 240.514445 
L 196.241877 239.178509 
L 196.055927 237.797849 
L 195.904465 236.37331 
L 195.760987 234.906236 
L 195.619008 233.398435 
L 195.507376 231.852087 
L 195.411366 230.269635 
L 195.259976 228.653726 
L 195.004283 227.007092 
L 194.640061 225.332494 
L 194.277397 223.632628 
L 194.033058 221.910108 
L 193.895437 220.167399 
L 193.828788 218.406788 
L 193.754108 216.630392 
L 193.631641 214.840127 
L 193.455806 213.037714 
L 193.126636 211.22472 
L 192.573995 209.40249 
L 191.928278 207.572253 
L 191.333422 205.735067 
L 190.870722 203.891847 
L 190.507643 202.043405 
L 190.182493 200.190433 
L 189.899917 198.333538 
L 189.641216 196.473229 
L 189.403234 194.609957 
L 189.143955 192.744094 
L 188.763266 190.875967 
L 188.244329 189.005849 
L 187.686603 187.133969 
L 187.074969 185.260528 
L 186.37216 183.385686 
L 185.662185 181.50958 
L 185.112107 179.632331 
L 184.755677 177.754 
L 184.532732 175.874708 
L 184.386259 173.994467 
L 184.214754 172.113356 
L 183.948021 170.231388 
L 183.627939 168.348596 
L 183.316682 166.464992 
L 182.991621 164.580565 
L 182.590758 162.695348 
L 182.113782 160.809296 
L 181.608414 158.922398 
L 181.120969 157.034653 
L 180.71096 155.146004 
L 180.414306 153.256452 
L 180.192623 151.365928 
L 179.94713 149.47442 
L 179.605033 147.581871 
L 179.18083 145.688224 
L 178.702995 143.79341 
L 178.229874 141.897406 
L 177.786457 140.000122 
L 177.359502 138.10151 
L 176.931915 136.201469 
L 176.510668 134.299929 
L 176.095304 132.396811 
L 175.692758 130.492023 
L 175.315647 128.585473 
L 174.950571 126.677047 
L 174.562316 124.766654 
L 174.160835 122.854179 
L 173.775152 120.939485 
L 173.411034 119.022446 
L 173.059729 117.102936 
L 172.702819 115.180818 
L 172.33796 113.25591 
L 171.976722 111.328072 
L 171.633806 109.397136 
L 171.312697 107.462904 
L 171.007415 105.525196 
L 170.72619 103.583804 
L 170.484551 101.6385 
L 170.295505 99.68909 
L 170.166206 97.735299 
L 170.102837 95.776886 
L 170.113564 93.813578 
L 170.207586 91.845088 
L 170.397581 89.871108 
L 170.711401 87.891328 
L 171.231083 85.905418 
" clip-path="url(#p20c6ceb14c)" style="fill: none; stroke-dasharray: 7.4,3.2; stroke-dashoffset: 0; stroke: #55a868; stroke-width: 2"/>
   </g>
   <g id="patch_8">
    <path d="M 164.987831 275.391 
L 164.987831 25.911 
" style="fill: none; stroke: #808080; stroke-width: 1.2; stroke-linejoin: miter; stroke-linecap: square"/>
   </g>
   <g id="patch_9">
    <path d="M 263.458419 275.391 
L 263.458419 25.911 
" style="fill: none; stroke: #808080; stroke-width: 1.2; stroke-linejoin: miter; stroke-linecap: square"/>
   </g>
   <g id="patch_10">
    <path d="M 164.987831 275.391 
L 263.458419 275.391 
" style="fill: none; stroke: #808080; stroke-width: 1.2; stroke-linejoin: miter; stroke-linecap: square"/>
   </g>
   <g id="patch_11">
    <path d="M 164.987831 25.911 
L 263.458419 25.911 
" style="fill: none; stroke: #808080; stroke-width: 1.2; stroke-linejoin: miter; stroke-linecap: square"/>
   </g>
   <g id="text_19">
    <!-- b) -->
    <g transform="translate(160.064301 16.318125) scale(0.12 -0.12)">
     <defs>
      <path id="DejaVuSerif-62" d="M 738 331 
L 738 4531 
L 184 4531 
L 184 4863 
L 1313 4863 
L 1313 2803 
Q 1481 3116 1742 3264 
Q 2003 3413 2388 3413 
Q 3000 3413 3387 2928 
Q 3775 2444 3775 1663 
Q 3775 881 3387 395 
Q 3000 -91 2388 -91 
Q 2003 -91 1742 57 
Q 1481 206 1313 519 
L 1313 0 
L 184 0 
L 184 331 
L 738 331 
z
M 1313 1497 
Q 1313 897 1542 583 
Q 1772 269 2209 269 
Q 2650 269 2876 622 
Q 3103 975 3103 1663 
Q 3103 2353 2876 2703 
Q 2650 3053 2209 3053 
Q 1772 3053 1542 2737 
Q 1313 2422 1313 1825 
L 1313 1497 
z
" transform="scale(0.015625)"/>
     </defs>
     <use xlink:href="#DejaVuSerif-62"/>
     <use xlink:href="#DejaVuSerif-29" x="64.013672"/>
    </g>
   </g>
   <g id="text_20">
    <!-- $h/L_0 =$41.07 -->
    <g transform="translate(177.623125 19.911) scale(0.12 -0.12)">
     <defs>
      <path id="DejaVuSerif-37" d="M 3609 4347 
L 1784 0 
L 1319 0 
L 3059 4153 
L 903 4153 
L 903 3578 
L 538 3578 
L 538 4666 
L 3609 4666 
L 3609 4347 
z
" transform="scale(0.015625)"/>
     </defs>
     <use xlink:href="#DejaVuSans-Oblique-68" transform="translate(0 0.015625)"/>
     <use xlink:href="#DejaVuSans-2f" transform="translate(63.378906 0.015625)"/>
     <use xlink:href="#DejaVuSans-Oblique-4c" transform="translate(97.070312 0.015625)"/>
     <use xlink:href="#DejaVuSans-30" transform="translate(152.783203 -16.390625) scale(0.7)"/>
     <use xlink:href="#DejaVuSans-3d" transform="translate(219.536133 0.015625)"/>
     <use xlink:href="#DejaVuSerif-34" transform="translate(322.807617 0.015625)"/>
     <use xlink:href="#DejaVuSerif-31" transform="translate(386.430664 0.015625)"/>
     <use xlink:href="#DejaVuSerif-2e" transform="translate(450.053711 0.015625)"/>
     <use xlink:href="#DejaVuSerif-30" transform="translate(481.84082 0.015625)"/>
     <use xlink:href="#DejaVuSerif-37" transform="translate(545.463867 0.015625)"/>
    </g>
   </g>
   <g id="PathCollection_2">
    <g clip-path="url(#p20c6ceb14c)">
     <use xlink:href="#m925b761d85" x="192.781754" y="237.009462" style="fill: #c44e52; stroke: #c44e52"/>
     <use xlink:href="#m925b761d85" x="186.339385" y="179.437154" style="fill: #c44e52; stroke: #c44e52"/>
     <use xlink:href="#m925b761d85" x="169.855475" y="83.483308" style="fill: #c44e52; stroke: #c44e52"/>
    </g>
   </g>
  </g>
  <g id="axes_3">
   <g id="patch_12">
    <path d="M 283.152537 275.391 
L 381.623125 275.391 
L 381.623125 25.911 
L 283.152537 25.911 
L 283.152537 275.391 
z
" style="fill: none"/>
   </g>
   <g id="matplotlib.axis_5">
    <g id="xtick_7">
     <g id="line2d_25">
      <g>
       <use xlink:href="#m7be432eb08" x="291.067871" y="275.391" style="stroke: #000000; stroke-width: 0.8"/>
      </g>
     </g>
     <g id="text_21">
      <!-- 0 -->
      <g transform="translate(287.886621 289.989437) scale(0.1 -0.1)">
       <use xlink:href="#DejaVuSerif-30"/>
      </g>
     </g>
    </g>
    <g id="xtick_8">
     <g id="line2d_26">
      <g>
       <use xlink:href="#m7be432eb08" x="324.961395" y="275.391" style="stroke: #000000; stroke-width: 0.8"/>
      </g>
     </g>
     <g id="text_22">
      <!-- 1 -->
      <g transform="translate(321.780145 289.989437) scale(0.1 -0.1)">
       <use xlink:href="#DejaVuSerif-31"/>
      </g>
     </g>
    </g>
    <g id="xtick_9">
     <g id="line2d_27">
      <g>
       <use xlink:href="#m7be432eb08" x="358.854918" y="275.391" style="stroke: #000000; stroke-width: 0.8"/>
      </g>
     </g>
     <g id="text_23">
      <!-- 2 -->
      <g transform="translate(355.673668 289.989437) scale(0.1 -0.1)">
       <use xlink:href="#DejaVuSerif-32"/>
      </g>
     </g>
    </g>
    <g id="text_24">
     <!-- $\langle {u_z}^\prime b^\prime\rangle/B_0$ -->
     <g transform="translate(305.567831 305.18725) scale(0.12 -0.12)">
      <use xlink:href="#DejaVuSans-27e8" transform="translate(0 0.584375)"/>
      <use xlink:href="#DejaVuSans-Oblique-75" transform="translate(39.013672 0.584375)"/>
      <use xlink:href="#DejaVuSans-Oblique-7a" transform="translate(102.392578 -15.821875) scale(0.7)"/>
      <use xlink:href="#Cmsy10-30" transform="translate(142.827148 38.865625) scale(0.7)"/>
      <use xlink:href="#DejaVuSans-Oblique-62" transform="translate(164.804688 0.584375)"/>
      <use xlink:href="#Cmsy10-30" transform="translate(235.728958 38.865625) scale(0.7)"/>
      <use xlink:href="#DejaVuSans-27e9" transform="translate(257.706497 0.584375)"/>
      <use xlink:href="#DejaVuSans-2f" transform="translate(296.720169 0.584375)"/>
      <use xlink:href="#DejaVuSans-Oblique-42" transform="translate(330.411576 0.584375)"/>
      <use xlink:href="#DejaVuSans-30" transform="translate(399.015091 -15.821875) scale(0.7)"/>
     </g>
    </g>
   </g>
   <g id="matplotlib.axis_6">
    <g id="ytick_15">
     <g id="line2d_28">
      <g>
       <use xlink:href="#md91dd2472b" x="283.152537" y="275.391" style="stroke: #000000; stroke-width: 0.8"/>
      </g>
     </g>
    </g>
    <g id="ytick_16">
     <g id="line2d_29">
      <g>
       <use xlink:href="#md91dd2472b" x="283.152537" y="237.009462" style="stroke: #000000; stroke-width: 0.8"/>
      </g>
     </g>
    </g>
    <g id="ytick_17">
     <g id="line2d_30">
      <g>
       <use xlink:href="#md91dd2472b" x="283.152537" y="198.627923" style="stroke: #000000; stroke-width: 0.8"/>
      </g>
     </g>
    </g>
    <g id="ytick_18">
     <g id="line2d_31">
      <g>
       <use xlink:href="#md91dd2472b" x="283.152537" y="160.246385" style="stroke: #000000; stroke-width: 0.8"/>
      </g>
     </g>
    </g>
    <g id="ytick_19">
     <g id="line2d_32">
      <g>
       <use xlink:href="#md91dd2472b" x="283.152537" y="121.864846" style="stroke: #000000; stroke-width: 0.8"/>
      </g>
     </g>
    </g>
    <g id="ytick_20">
     <g id="line2d_33">
      <g>
       <use xlink:href="#md91dd2472b" x="283.152537" y="83.483308" style="stroke: #000000; stroke-width: 0.8"/>
      </g>
     </g>
    </g>
    <g id="ytick_21">
     <g id="line2d_34">
      <g>
       <use xlink:href="#md91dd2472b" x="283.152537" y="45.101769" style="stroke: #000000; stroke-width: 0.8"/>
      </g>
     </g>
    </g>
   </g>
   <g id="line2d_35">
    <path d="M 291.067871 275.391 
L 291.648279 274.732802 
L 293.294437 274.074293 
L 295.936551 273.415418 
L 303.158288 272.096314 
L 310.336866 270.774853 
L 313.213384 270.112976 
L 315.515023 269.45016 
L 317.284349 268.786245 
L 318.603137 268.121042 
L 319.562178 267.454336 
L 320.244419 266.78587 
L 320.718613 266.115352 
L 321.242957 264.766716 
L 321.417316 263.404956 
L 321.328691 261.327139 
L 320.893444 258.45372 
L 318.915635 248.142077 
L 317.449028 241.245528 
L 314.074564 225.522523 
L 309.075226 201.429536 
L 295.702127 136.868693 
L 293.266201 125.037726 
L 291.302145 114.764843 
L 289.817474 106.073585 
L 288.499144 97.221923 
L 287.940057 91.812706 
L 287.644601 86.313043 
L 287.674978 82.588215 
L 287.959978 78.810163 
L 288.486618 74.972516 
L 289.770278 67.089383 
L 290.439506 60.961731 
L 290.702731 56.755624 
L 290.805899 48.000253 
L 290.909424 23.398866 
L 291.012407 -1 
L 291.012407 -1 
" clip-path="url(#p3304472219)" style="fill: none; stroke: #4c72b0; stroke-width: 2; stroke-linecap: square"/>
   </g>
   <g id="line2d_36">
    <path d="M 306.11417 274.732802 
L 346.149809 273.415418 
L 362.13337 272.756117 
L 372.560725 272.096314 
L 377.147189 271.435927 
L 376.832955 270.774853 
L 373.13114 270.112976 
L 361.276719 268.786245 
L 349.428597 267.454336 
L 340.240625 266.115352 
L 336.685219 265.442433 
L 333.72294 264.766716 
L 331.266633 264.087736 
L 329.236202 263.404956 
L 327.553233 262.717757 
L 326.179053 262.025424 
L 325.046255 261.327139 
L 323.339991 259.908834 
L 322.098984 258.45372 
L 321.069839 256.950256 
L 319.76305 254.572732 
L 318.173155 251.082129 
L 317.4699 249.157075 
L 316.944893 247.089876 
L 316.492747 243.700438 
L 315.802036 238.642134 
L 315.057227 234.489906 
L 314.360009 231.583403 
L 313.079919 227.063284 
L 312.624984 223.96795 
L 312.119176 220.823899 
L 311.587968 217.642616 
L 311.041914 212.820095 
L 310.863412 209.580886 
L 310.609064 207.955863 
L 305.72092 188.301512 
L 304.441832 180.066814 
L 303.650259 176.76789 
L 302.280441 171.814054 
L 301.802054 168.50765 
L 301.274604 165.197882 
L 300.238975 160.226282 
L 299.461845 156.906666 
L 297.65145 146.917392 
L 295.458931 135.186592 
L 292.627522 123.335343 
L 291.174054 116.487528 
L 288.778032 104.317567 
L 288.258468 100.784861 
L 287.912401 97.221923 
L 287.796263 93.625082 
L 288.002807 89.990298 
L 288.283825 88.157287 
L 288.762432 86.313043 
L 288.762432 86.313043 
" clip-path="url(#p3304472219)" style="fill: none; stroke-dasharray: 7.4,3.2; stroke-dashoffset: 0; stroke: #55a868; stroke-width: 2"/>
   </g>
   <g id="patch_13">
    <path d="M 283.152537 275.391 
L 283.152537 25.911 
" style="fill: none; stroke: #808080; stroke-width: 1.2; stroke-linejoin: miter; stroke-linecap: square"/>
   </g>
   <g id="patch_14">
    <path d="M 381.623125 275.391 
L 381.623125 25.911 
" style="fill: none; stroke: #808080; stroke-width: 1.2; stroke-linejoin: miter; stroke-linecap: square"/>
   </g>
   <g id="patch_15">
    <path d="M 283.152537 275.391 
L 381.623125 275.391 
" style="fill: none; stroke: #808080; stroke-width: 1.2; stroke-linejoin: miter; stroke-linecap: square"/>
   </g>
   <g id="patch_16">
    <path d="M 283.152537 25.911 
L 381.623125 25.911 
" style="fill: none; stroke: #808080; stroke-width: 1.2; stroke-linejoin: miter; stroke-linecap: square"/>
   </g>
   <g id="text_25">
    <!-- c) -->
    <g transform="translate(278.229007 16.318125) scale(0.12 -0.12)">
     <defs>
      <path id="DejaVuSerif-63" d="M 3291 997 
Q 3169 466 2822 187 
Q 2475 -91 1925 -91 
Q 1200 -91 759 389 
Q 319 869 319 1663 
Q 319 2459 759 2936 
Q 1200 3413 1925 3413 
Q 2241 3413 2553 3339 
Q 2866 3266 3181 3116 
L 3181 2266 
L 2847 2266 
Q 2781 2703 2561 2903 
Q 2341 3103 1931 3103 
Q 1466 3103 1228 2742 
Q 991 2381 991 1663 
Q 991 944 1227 581 
Q 1463 219 1931 219 
Q 2303 219 2525 412 
Q 2747 606 2828 997 
L 3291 997 
z
" transform="scale(0.015625)"/>
     </defs>
     <use xlink:href="#DejaVuSerif-63"/>
     <use xlink:href="#DejaVuSerif-29" x="56.005859"/>
    </g>
   </g>
   <g id="text_26">
    <!-- $h/L_0 =$46.78 -->
    <g transform="translate(295.787831 19.911) scale(0.12 -0.12)">
     <use xlink:href="#DejaVuSans-Oblique-68" transform="translate(0 0.015625)"/>
     <use xlink:href="#DejaVuSans-2f" transform="translate(63.378906 0.015625)"/>
     <use xlink:href="#DejaVuSans-Oblique-4c" transform="translate(97.070312 0.015625)"/>
     <use xlink:href="#DejaVuSans-30" transform="translate(152.783203 -16.390625) scale(0.7)"/>
     <use xlink:href="#DejaVuSans-3d" transform="translate(219.536133 0.015625)"/>
     <use xlink:href="#DejaVuSerif-34" transform="translate(322.807617 0.015625)"/>
     <use xlink:href="#DejaVuSerif-36" transform="translate(386.430664 0.015625)"/>
     <use xlink:href="#DejaVuSerif-2e" transform="translate(450.053711 0.015625)"/>
     <use xlink:href="#DejaVuSerif-37" transform="translate(481.84082 0.015625)"/>
     <use xlink:href="#DejaVuSerif-38" transform="translate(545.463867 0.015625)"/>
    </g>
   </g>
   <g id="legend_1">
    <g id="patch_17">
     <path d="M 303.238419 96.255 
L 361.2842 96.255 
Q 363.0842 96.255 363.0842 94.455 
L 363.0842 55.724063 
Q 363.0842 53.924062 361.2842 53.924062 
L 303.238419 53.924062 
Q 301.438419 53.924062 301.438419 55.724063 
L 301.438419 94.455 
Q 301.438419 96.255 303.238419 96.255 
z
" style="fill: #ffffff; opacity: 0.8; stroke: #cccccc; stroke-linejoin: miter"/>
    </g>
    <g id="line2d_37">
     <path d="M 305.038419 61.212656 
L 314.038419 61.212656 
L 323.038419 61.212656 
" style="fill: none; stroke: #4c72b0; stroke-width: 2; stroke-linecap: square"/>
    </g>
    <g id="text_27">
     <!-- DNS -->
     <g transform="translate(330.238419 64.362656) scale(0.09 -0.09)">
      <defs>
       <path id="DejaVuSerif-44" d="M 1581 331 
L 2163 331 
Q 3072 331 3558 850 
Q 4044 1369 4044 2338 
Q 4044 3306 3559 3818 
Q 3075 4331 2163 4331 
L 1581 4331 
L 1581 331 
z
M 353 0 
L 353 331 
L 947 331 
L 947 4331 
L 353 4331 
L 353 4666 
L 2209 4666 
Q 3416 4666 4089 4050 
Q 4763 3434 4763 2338 
Q 4763 1238 4088 619 
Q 3413 0 2209 0 
L 353 0 
z
" transform="scale(0.015625)"/>
       <path id="DejaVuSerif-4e" d="M 313 0 
L 313 331 
L 941 331 
L 941 4331 
L 313 4331 
L 313 4666 
L 1509 4666 
L 4306 984 
L 4306 4331 
L 3681 4331 
L 3681 4666 
L 5319 4666 
L 5319 4331 
L 4691 4331 
L 4691 -91 
L 4313 -91 
L 1325 3841 
L 1325 331 
L 1953 331 
L 1953 0 
L 313 0 
z
" transform="scale(0.015625)"/>
       <path id="DejaVuSerif-53" d="M 594 225 
L 594 1288 
L 953 1284 
Q 969 753 1261 498 
Q 1553 244 2150 244 
Q 2706 244 2998 464 
Q 3291 684 3291 1106 
Q 3291 1444 3114 1625 
Q 2938 1806 2369 1978 
L 1753 2163 
Q 1084 2366 811 2669 
Q 538 2972 538 3500 
Q 538 4094 959 4422 
Q 1381 4750 2144 4750 
Q 2469 4750 2856 4679 
Q 3244 4609 3681 4475 
L 3681 3481 
L 3328 3481 
Q 3275 3975 2998 4195 
Q 2722 4416 2156 4416 
Q 1663 4416 1405 4214 
Q 1147 4013 1147 3628 
Q 1147 3294 1340 3103 
Q 1534 2913 2163 2725 
L 2741 2553 
Q 3375 2363 3645 2067 
Q 3916 1772 3916 1275 
Q 3916 597 3481 253 
Q 3047 -91 2188 -91 
Q 1803 -91 1404 -12 
Q 1006 66 594 225 
z
" transform="scale(0.015625)"/>
      </defs>
      <use xlink:href="#DejaVuSerif-44"/>
      <use xlink:href="#DejaVuSerif-4e" x="80.175781"/>
      <use xlink:href="#DejaVuSerif-53" x="167.675781"/>
     </g>
    </g>
    <g id="line2d_38">
     <path d="M 305.038419 74.422969 
L 314.038419 74.422969 
L 323.038419 74.422969 
" style="fill: none; stroke-dasharray: 7.4,3.2; stroke-dashoffset: 0; stroke: #55a868; stroke-width: 2"/>
    </g>
    <g id="text_28">
     <!-- EDMF -->
     <g transform="translate(330.238419 77.572969) scale(0.09 -0.09)">
      <defs>
       <path id="DejaVuSerif-45" d="M 353 0 
L 353 331 
L 947 331 
L 947 4331 
L 353 4331 
L 353 4666 
L 4109 4666 
L 4109 3628 
L 3725 3628 
L 3725 4281 
L 1581 4281 
L 1581 2719 
L 3109 2719 
L 3109 3303 
L 3494 3303 
L 3494 1753 
L 3109 1753 
L 3109 2338 
L 1581 2338 
L 1581 384 
L 3775 384 
L 3775 1038 
L 4159 1038 
L 4159 0 
L 353 0 
z
" transform="scale(0.015625)"/>
       <path id="DejaVuSerif-4d" d="M 353 0 
L 353 331 
L 947 331 
L 947 4331 
L 319 4331 
L 319 4666 
L 1678 4666 
L 3316 1344 
L 4953 4666 
L 6228 4666 
L 6228 4331 
L 5606 4331 
L 5606 331 
L 6203 331 
L 6203 0 
L 4378 0 
L 4378 331 
L 4972 331 
L 4972 3938 
L 3372 684 
L 2931 684 
L 1331 3938 
L 1331 331 
L 1925 331 
L 1925 0 
L 353 0 
z
" transform="scale(0.015625)"/>
       <path id="DejaVuSerif-46" d="M 353 0 
L 353 331 
L 947 331 
L 947 4331 
L 353 4331 
L 353 4666 
L 4172 4666 
L 4172 3628 
L 3788 3628 
L 3788 4281 
L 1581 4281 
L 1581 2719 
L 3175 2719 
L 3175 3303 
L 3559 3303 
L 3559 1753 
L 3175 1753 
L 3175 2338 
L 1581 2338 
L 1581 331 
L 2328 331 
L 2328 0 
L 353 0 
z
" transform="scale(0.015625)"/>
      </defs>
      <use xlink:href="#DejaVuSerif-45"/>
      <use xlink:href="#DejaVuSerif-44" x="72.998047"/>
      <use xlink:href="#DejaVuSerif-4d" x="153.173828"/>
      <use xlink:href="#DejaVuSerif-46" x="255.566406"/>
     </g>
    </g>
    <g id="PathCollection_3">
     <g>
      <use xlink:href="#m925b761d85" x="314.038419" y="88.420781" style="fill: #c44e52; stroke: #c44e52"/>
     </g>
    </g>
    <g id="text_29">
     <!-- GAN -->
     <g transform="translate(330.238419 90.783281) scale(0.09 -0.09)">
      <defs>
       <path id="DejaVuSerif-47" d="M 4097 3272 
Q 3988 3856 3641 4136 
Q 3294 4416 2675 4416 
Q 1869 4416 1472 3897 
Q 1075 3378 1075 2328 
Q 1075 1300 1484 772 
Q 1894 244 2688 244 
Q 3041 244 3362 331 
Q 3684 419 3975 594 
L 3975 1797 
L 3097 1797 
L 3097 2131 
L 4609 2131 
L 4609 391 
Q 4194 150 3714 29 
Q 3234 -91 2688 -91 
Q 1631 -91 995 570 
Q 359 1231 359 2328 
Q 359 3434 996 4092 
Q 1634 4750 2713 4750 
Q 3113 4750 3539 4658 
Q 3966 4566 4447 4378 
L 4447 3272 
L 4097 3272 
z
" transform="scale(0.015625)"/>
       <path id="DejaVuSerif-41" d="M 1281 1691 
L 2994 1691 
L 2138 3909 
L 1281 1691 
z
M -38 0 
L -38 331 
L 372 331 
L 2034 4666 
L 2559 4666 
L 4225 331 
L 4684 331 
L 4684 0 
L 2988 0 
L 2988 331 
L 3506 331 
L 3116 1356 
L 1153 1356 
L 763 331 
L 1275 331 
L 1275 0 
L -38 0 
z
" transform="scale(0.015625)"/>
      </defs>
      <use xlink:href="#DejaVuSerif-47"/>
      <use xlink:href="#DejaVuSerif-41" x="79.882812"/>
      <use xlink:href="#DejaVuSerif-4e" x="152.099609"/>
     </g>
    </g>
   </g>
   <g id="PathCollection_4">
    <g clip-path="url(#p3304472219)">
     <use xlink:href="#m925b761d85" x="310.670017" y="237.009462" style="fill: #c44e52; stroke: #c44e52"/>
     <use xlink:href="#m925b761d85" x="304.250228" y="179.437154" style="fill: #c44e52; stroke: #c44e52"/>
     <use xlink:href="#m925b761d85" x="287.82409" y="83.483308" style="fill: #c44e52; stroke: #c44e52"/>
    </g>
   </g>
  </g>
 </g>
 <defs>
  <clipPath id="p6b6079cd74">
   <rect x="46.823125" y="25.911" width="98.470588" height="249.48"/>
  </clipPath>
  <clipPath id="p20c6ceb14c">
   <rect x="164.987831" y="25.911" width="98.470588" height="249.48"/>
  </clipPath>
  <clipPath id="p3304472219">
   <rect x="283.152537" y="25.911" width="98.470588" height="249.48"/>
  </clipPath>
 </defs>
</svg>
